<svg xmlns="http://www.w3.org/2000/svg" xmlns:xlink="http://www.w3.org/1999/xlink" width="470" height="535.33"><rect width="470" height="535.33" rx="0" ry="0" class="a"/><svg height="499.33" viewBox="0 0 43 49.933" width="430" x="20" xmlns="http://www.w3.org/2000/svg" xmlns:xlink="http://www.w3.org/1999/xlink" y="18"><style>@keyframes l{0%{transform:translateX(0)}4.3%{transform:translateX(-43px)}5.5%{transform:translateX(-86px)}9.5%{transform:translateX(-129px)}9.6%{transform:translateX(-258px)}9.7%{transform:translateX(-387px)}25.7%{transform:translateX(-430px)}27.5%{transform:translateX(-473px)}27.6%{transform:translateX(-516px)}29%{transform:translateX(-559px)}29.1%{transform:translateX(-645px)}29.2%{transform:translateX(-688px)}29.3%{transform:translateX(-731px)}29.4%{transform:translateX(-817px)}32.6%{transform:translateX(-860px)}38.1%{transform:translateX(-946px)}38.2%{transform:translateX(-1032px)}38.4%{transform:translateX(-1161px)}40.1%{transform:translateX(-1204px)}40.8%{transform:translateX(-1247px)}42.4%{transform:translateX(-1290px)}49%{transform:translateX(-1333px)}49.1%{transform:translateX(-1462px)}49.3%{transform:translateX(-1505px)}49.4%{transform:translateX(-1591px)}57.3%{transform:translateX(-1634px)}58.4%{transform:translateX(-1677px)}60.1%{transform:translateX(-1720px)}60.2%{transform:translateX(-1892px)}60.4%{transform:translateX(-1978px)}60.5%{transform:translateX(-2021px)}98.8%{transform:translateX(-2064px)}98.9%{transform:translateX(-2107px)}99.1%{transform:translateX(-2150px)}99.3%{transform:translateX(-2193px)}to{transform:translateX(-2279px)}}.a{fill:#282d35}.c,.f{fill:#b9c0cb;white-space:pre}.f{fill:gray}.g{font-weight:700}.g,.h,.i{fill:#ff87ff;white-space:pre}.i{fill:red}</style><g font-family="Monaco,Consolas,Menlo,'Bitstream Vera Sans Mono','Powerline Symbols',monospace" font-size="1.67"><defs><symbol id="1"><text y="1.67" class="c">Restored</text><text x="9.018" y="1.67" class="c">session:</text><text x="18.036" y="1.67" class="c">Thu</text><text x="22.044" y="1.67" class="c">Jan</text><text x="26.052" y="1.67" class="c">20</text><text x="29.058" y="1.67" class="c">23:07:25</text><text x="38.076" y="1.67" class="c">CET</text><text x="42.084" y="1.67" class="c">2</text></symbol><symbol id="2"><text y="1.67" class="c">022</text></symbol><symbol id="3"><path fill="#b9c0cb" d="M0 0h1v2.171H0z"/><text y="1.67" style="white-space:pre" fill="#282d35" font-weight="700">%</text></symbol><symbol id="4"><text y="1.67" class="f">╭─</text><text x="3.006" y="1.67" class="g">~</text><text x="4.008" y="1.67" class="h">/Desktop/</text><text x="13.026" y="1.67" class="g">dev</text><text x="17.034" y="1.67" class="f">··············</text><text x="32.064" y="1.67" class="h">23:10:26</text><text x="41.082" y="1.67" class="f">─╮</text></symbol><symbol id="5"><text y="1.67" class="f">╰─</text><text x="2.004" y="1.67" class="h">❯</text></symbol><symbol id="6"><text y="1.67" class="f">╰─</text><text x="2.004" y="1.67" class="h">❯</text><text x="41.082" y="1.67" class="f">─╯</text></symbol><symbol id="7"><text y="1.67" class="f">╰─</text><text x="2.004" y="1.67" class="h">❯</text><text x="4.008" y="1.67" class="c">afs</text><text x="41.082" y="1.67" class="f">─╯</text></symbol><symbol id="8"><text y="1.67" class="c">zsh:</text><text x="5.01" y="1.67" class="c">command</text><text x="13.026" y="1.67" class="c">not</text><text x="17.034" y="1.67" class="c">found:</text><text x="24.048" y="1.67" class="c">afs</text></symbol><symbol id="9"><text y="1.67" class="f">╭─</text><text x="3.006" y="1.67" class="g">~</text><text x="4.008" y="1.67" class="h">/Desktop/</text><text x="13.026" y="1.67" class="g">dev</text><text x="17.034" y="1.67" class="f">··············</text><text x="32.064" y="1.67" class="h">23:10:27</text><text x="41.082" y="1.67" class="f">─╮</text></symbol><symbol id="10"><text y="1.67" class="f">╰─</text><text x="2.004" y="1.67" class="i">❯</text><text x="41.082" y="1.67" class="f">─╯</text></symbol><symbol id="11"><text y="1.67" class="f">╰─</text><text x="2.004" y="1.67" class="i">❯</text><text x="4.008" y="1.67" class="c">a</text><text x="41.082" y="1.67" class="f">─╯</text></symbol><symbol id="12"><text y="1.67" class="c">zsh:</text><text x="5.01" y="1.67" class="c">command</text><text x="13.026" y="1.67" class="c">not</text><text x="17.034" y="1.67" class="c">found:</text><text x="24.048" y="1.67" class="c">a</text></symbol><symbol id="13"><text y="1.67" class="f">╰─</text><text x="2.004" y="1.67" class="i">❯</text><text x="4.008" y="1.67" class="c">asf</text><text x="41.082" y="1.67" class="f">─╯</text></symbol><symbol id="14"><text y="1.67" class="c">zsh:</text><text x="5.01" y="1.67" class="c">command</text><text x="13.026" y="1.67" class="c">not</text><text x="17.034" y="1.67" class="c">found:</text><text x="24.048" y="1.67" class="c">asf</text></symbol><symbol id="15"><text y="1.67" class="f">╭─</text><text x="3.006" y="1.67" class="g">~</text><text x="4.008" y="1.67" class="h">/Desktop/</text><text x="13.026" y="1.67" class="g">dev</text><text x="17.034" y="1.67" class="f">··············</text><text x="32.064" y="1.67" class="h">23:10:28</text><text x="41.082" y="1.67" class="f">─╮</text></symbol><symbol id="16"><text y="1.67" class="f">╰─</text><text x="2.004" y="1.67" class="i">❯</text><text x="4.008" y="1.67" class="c">ls</text><text x="41.082" y="1.67" class="f">─╯</text></symbol><symbol id="17"><text y="1.67" class="c">COVID_19</text></symbol><symbol id="18"><text y="1.67" class="c">ansible-pi</text></symbol><symbol id="19"><text y="1.67" class="c">degiro</text></symbol><symbol id="20"><text y="1.67" class="c">demo</text></symbol><symbol id="21"><text y="1.67" class="c">depyro</text></symbol><symbol id="22"><text y="1.67" class="c">djangowebapp</text></symbol><symbol id="23"><text y="1.67" class="c">funda_scraper</text></symbol><symbol id="24"><text y="1.67" class="c">hello-rust</text></symbol><symbol id="25"><text y="1.67" class="c">minigrep</text></symbol><symbol id="26"><text y="1.67" class="c">portfolio-analysis</text></symbol><symbol id="27"><text y="1.67" class="c">pyholdings</text></symbol><symbol id="28"><text y="1.67" class="c">reddit</text></symbol><symbol id="29"><text y="1.67" class="c">redux-saga-beginner-tutorial</text></symbol><symbol id="30"><text y="1.67" class="c">resume</text></symbol><symbol id="31"><text y="1.67" class="c">sousvide</text></symbol><symbol id="32"><text y="1.67" class="c">spotifycluster_dev</text></symbol><symbol id="33"><text y="1.67" class="c">thesis-msc-finance</text></symbol><symbol id="34"><text y="1.67" class="c">warzone_api</text></symbol><symbol id="35"><text y="1.67" class="c">Saving</text><text x="7.014" y="1.67" class="c">session...</text></symbol><symbol id="36"><text y="1.67" class="c">...saving</text><text x="10.02" y="1.67" class="c">history...truncating</text><text x="31.062" y="1.67" class="c">history</text><text x="39.078" y="1.67" class="c">file</text></symbol><symbol id="37"><text y="1.67" class="c">s...</text></symbol><symbol id="a"><path fill="transparent" d="M0 0h43v24H0z"/></symbol><symbol id="b"><path fill="#6f7683" d="M0 0h1.102v2.171H0z"/></symbol></defs><path class="a" d="M0 0h43v49.933H0z"/><g style="animation-duration:4.268337s;animation-iteration-count:infinite;animation-name:l;animation-timing-function:steps(1,end)"><svg width="2322"><svg><use xlink:href="#a"/><use xlink:href="#b" x="-.004"/></svg><svg x="43"><use xlink:href="#a"/><use xlink:href="#b" x="-.004" y="4.317"/><use xlink:href="#1"/><use xlink:href="#2" y="2.171"/></svg><svg x="86"><use xlink:href="#a"/><use xlink:href="#b" x="3.996" y="8.659"/><use xlink:href="#1"/><use xlink:href="#2" y="2.171"/><use xlink:href="#3" y="4.342"/><use xlink:href="#4" y="6.513"/><use xlink:href="#5" y="8.684"/></svg><svg x="129"><use xlink:href="#a"/><use xlink:href="#1"/><use xlink:href="#2" y="2.171"/><use xlink:href="#3" y="4.342"/><use xlink:href="#4" y="6.513"/><use xlink:href="#5" y="8.684"/></svg><svg x="172"><use xlink:href="#a"/><use xlink:href="#1"/><use xlink:href="#2" y="2.171"/><use xlink:href="#3" y="4.342"/></svg><svg x="215"><use xlink:href="#a"/><use xlink:href="#1"/><use xlink:href="#2" y="2.171"/><use xlink:href="#3" y="4.342"/></svg><svg x="258"><use xlink:href="#a"/><use xlink:href="#1"/><use xlink:href="#2" y="2.171"/><use xlink:href="#3" y="4.342"/><use xlink:href="#3" y="6.513"/></svg><svg x="301"><use xlink:href="#a"/><use xlink:href="#1"/><use xlink:href="#2" y="2.171"/><use xlink:href="#3" y="4.342"/><use xlink:href="#3" y="6.513"/><use xlink:href="#4" y="8.684"/><use xlink:href="#6" y="10.855"/></svg><svg x="344"><use xlink:href="#a"/><use xlink:href="#b" x="3.996" y="10.83"/><use xlink:href="#1"/><use xlink:href="#2" y="2.171"/><use xlink:href="#3" y="4.342"/><use xlink:href="#3" y="6.513"/><use xlink:href="#4" y="8.684"/><use xlink:href="#6" y="10.855"/></svg><svg x="387"><use xlink:href="#a"/><use xlink:href="#b" x="3.996" y="10.83"/><use xlink:href="#1"/><use xlink:href="#2" y="2.171"/><use xlink:href="#3" y="4.342"/><use xlink:href="#3" y="6.513"/><use xlink:href="#4" y="8.684"/><use xlink:href="#6" y="10.855"/></svg><svg x="430"><use xlink:href="#a"/><use xlink:href="#b" x="4.996" y="10.83"/><use xlink:href="#1"/><use xlink:href="#2" y="2.171"/><use xlink:href="#3" y="4.342"/><use xlink:href="#3" y="6.513"/><use xlink:href="#4" y="8.684"/><text y="12.525" class="f">╰─</text><text x="2.004" y="12.525" class="h">❯</text><text x="4.008" y="12.525" class="c">a</text><text x="41.082" y="12.525" class="f">─╯</text></svg><svg x="473"><use xlink:href="#a"/><use xlink:href="#b" x="5.996" y="10.83"/><use xlink:href="#1"/><use xlink:href="#2" y="2.171"/><use xlink:href="#3" y="4.342"/><use xlink:href="#3" y="6.513"/><use xlink:href="#4" y="8.684"/><text y="12.525" class="f">╰─</text><text x="2.004" y="12.525" class="h">❯</text><text x="4.008" y="12.525" class="c">af</text><text x="41.082" y="12.525" class="f">─╯</text></svg><svg x="516"><use xlink:href="#a"/><use xlink:href="#b" x="6.996" y="10.83"/><use xlink:href="#1"/><use xlink:href="#2" y="2.171"/><use xlink:href="#3" y="4.342"/><use xlink:href="#3" y="6.513"/><use xlink:href="#4" y="8.684"/><use xlink:href="#7" y="10.855"/></svg><svg x="559"><use xlink:href="#a"/><use xlink:href="#b" x="-.004" y="13.001"/><use xlink:href="#1"/><use xlink:href="#2" y="2.171"/><use xlink:href="#3" y="4.342"/><use xlink:href="#3" y="6.513"/><use xlink:href="#4" y="8.684"/><use xlink:href="#7" y="10.855"/></svg><svg x="602"><use xlink:href="#a"/><use xlink:href="#b" x="-.004" y="15.172"/><use xlink:href="#1"/><use xlink:href="#2" y="2.171"/><use xlink:href="#3" y="4.342"/><use xlink:href="#3" y="6.513"/><use xlink:href="#4" y="8.684"/><use xlink:href="#7" y="10.855"/><use xlink:href="#8" y="13.026"/></svg><svg x="645"><use xlink:href="#a"/><use xlink:href="#b" x="-.004" y="17.343"/><use xlink:href="#1"/><use xlink:href="#2" y="2.171"/><use xlink:href="#3" y="4.342"/><use xlink:href="#3" y="6.513"/><use xlink:href="#4" y="8.684"/><use xlink:href="#7" y="10.855"/><use xlink:href="#8" y="13.026"/><use xlink:href="#3" y="15.197"/></svg><svg x="688"><use xlink:href="#a"/><use xlink:href="#b" x="-.004" y="17.343"/><use xlink:href="#1"/><use xlink:href="#2" y="2.171"/><use xlink:href="#3" y="4.342"/><use xlink:href="#3" y="6.513"/><use xlink:href="#4" y="8.684"/><use xlink:href="#7" y="10.855"/><use xlink:href="#8" y="13.026"/><use xlink:href="#3" y="15.197"/></svg><svg x="731"><use xlink:href="#a"/><use xlink:href="#b" x="-.004" y="19.514"/><use xlink:href="#1"/><use xlink:href="#2" y="2.171"/><use xlink:href="#3" y="4.342"/><use xlink:href="#3" y="6.513"/><use xlink:href="#4" y="8.684"/><use xlink:href="#7" y="10.855"/><use xlink:href="#8" y="13.026"/><use xlink:href="#3" y="15.197"/></svg><svg x="774"><use xlink:href="#a"/><use xlink:href="#b" x="3.996" y="21.685"/><use xlink:href="#1"/><use xlink:href="#2" y="2.171"/><use xlink:href="#3" y="4.342"/><use xlink:href="#3" y="6.513"/><use xlink:href="#4" y="8.684"/><use xlink:href="#7" y="10.855"/><use xlink:href="#8" y="13.026"/><use xlink:href="#3" y="15.197"/><use xlink:href="#9" y="19.539"/><use xlink:href="#10" y="21.71"/></svg><svg x="817"><use xlink:href="#a"/><use xlink:href="#b" x="3.996" y="21.685"/><use xlink:href="#1"/><use xlink:href="#2" y="2.171"/><use xlink:href="#3" y="4.342"/><use xlink:href="#3" y="6.513"/><use xlink:href="#4" y="8.684"/><use xlink:href="#7" y="10.855"/><use xlink:href="#8" y="13.026"/><use xlink:href="#3" y="15.197"/><use xlink:href="#9" y="19.539"/><use xlink:href="#10" y="21.71"/></svg><svg x="860"><use xlink:href="#a"/><use xlink:href="#b" x="4.996" y="21.685"/><use xlink:href="#1"/><use xlink:href="#2" y="2.171"/><use xlink:href="#3" y="4.342"/><use xlink:href="#3" y="6.513"/><use xlink:href="#4" y="8.684"/><use xlink:href="#7" y="10.855"/><use xlink:href="#8" y="13.026"/><use xlink:href="#3" y="15.197"/><use xlink:href="#9" y="19.539"/><use xlink:href="#11" y="21.71"/></svg><svg x="903"><use xlink:href="#a"/><use xlink:href="#b" x="-.004" y="23.856"/><use xlink:href="#1"/><use xlink:href="#2" y="2.171"/><use xlink:href="#3" y="4.342"/><use xlink:href="#3" y="6.513"/><use xlink:href="#4" y="8.684"/><use xlink:href="#7" y="10.855"/><use xlink:href="#8" y="13.026"/><use xlink:href="#3" y="15.197"/><use xlink:href="#9" y="19.539"/><use xlink:href="#11" y="21.71"/></svg><svg x="946"><use xlink:href="#a"/><use xlink:href="#b" x="-.004" y="26.027"/><use xlink:href="#1"/><use xlink:href="#2" y="2.171"/><use xlink:href="#3" y="4.342"/><use xlink:href="#3" y="6.513"/><use xlink:href="#4" y="8.684"/><use xlink:href="#7" y="10.855"/><use xlink:href="#8" y="13.026"/><use xlink:href="#3" y="15.197"/><use xlink:href="#9" y="19.539"/><use xlink:href="#11" y="21.71"/><use xlink:href="#12" y="23.881"/></svg><svg x="989"><use xlink:href="#a"/><use xlink:href="#b" x="-.004" y="28.198"/><use xlink:href="#1"/><use xlink:href="#2" y="2.171"/><use xlink:href="#3" y="4.342"/><use xlink:href="#3" y="6.513"/><use xlink:href="#4" y="8.684"/><use xlink:href="#7" y="10.855"/><use xlink:href="#8" y="13.026"/><use xlink:href="#3" y="15.197"/><use xlink:href="#9" y="19.539"/><use xlink:href="#11" y="21.71"/><use xlink:href="#12" y="23.881"/><use xlink:href="#3" y="26.052"/></svg><svg x="1032"><use xlink:href="#a"/><use xlink:href="#b" x="-.004" y="28.198"/><use xlink:href="#1"/><use xlink:href="#2" y="2.171"/><use xlink:href="#3" y="4.342"/><use xlink:href="#3" y="6.513"/><use xlink:href="#4" y="8.684"/><use xlink:href="#7" y="10.855"/><use xlink:href="#8" y="13.026"/><use xlink:href="#3" y="15.197"/><use xlink:href="#9" y="19.539"/><use xlink:href="#11" y="21.71"/><use xlink:href="#12" y="23.881"/><use xlink:href="#3" y="26.052"/></svg><svg x="1075"><use xlink:href="#a"/><use xlink:href="#b" x="-.004" y="30.369"/><use xlink:href="#1"/><use xlink:href="#2" y="2.171"/><use xlink:href="#3" y="4.342"/><use xlink:href="#3" y="6.513"/><use xlink:href="#4" y="8.684"/><use xlink:href="#7" y="10.855"/><use xlink:href="#8" y="13.026"/><use xlink:href="#3" y="15.197"/><use xlink:href="#9" y="19.539"/><use xlink:href="#11" y="21.71"/><use xlink:href="#12" y="23.881"/><use xlink:href="#3" y="26.052"/></svg><svg x="1118"><use xlink:href="#a"/><use xlink:href="#b" x="3.996" y="32.54"/><use xlink:href="#1"/><use xlink:href="#2" y="2.171"/><use xlink:href="#3" y="4.342"/><use xlink:href="#3" y="6.513"/><use xlink:href="#4" y="8.684"/><use xlink:href="#7" y="10.855"/><use xlink:href="#8" y="13.026"/><use xlink:href="#3" y="15.197"/><use xlink:href="#9" y="19.539"/><use xlink:href="#11" y="21.71"/><use xlink:href="#12" y="23.881"/><use xlink:href="#3" y="26.052"/><use xlink:href="#9" y="30.394"/><use xlink:href="#10" y="32.565"/></svg><svg x="1161"><use xlink:href="#a"/><use xlink:href="#b" x="3.996" y="32.54"/><use xlink:href="#1"/><use xlink:href="#2" y="2.171"/><use xlink:href="#3" y="4.342"/><use xlink:href="#3" y="6.513"/><use xlink:href="#4" y="8.684"/><use xlink:href="#7" y="10.855"/><use xlink:href="#8" y="13.026"/><use xlink:href="#3" y="15.197"/><use xlink:href="#9" y="19.539"/><use xlink:href="#11" y="21.71"/><use xlink:href="#12" y="23.881"/><use xlink:href="#3" y="26.052"/><use xlink:href="#9" y="30.394"/><use xlink:href="#10" y="32.565"/></svg><svg x="1204"><use xlink:href="#a"/><use xlink:href="#b" x="4.996" y="32.54"/><use xlink:href="#1"/><use xlink:href="#2" y="2.171"/><use xlink:href="#3" y="4.342"/><use xlink:href="#3" y="6.513"/><use xlink:href="#4" y="8.684"/><use xlink:href="#7" y="10.855"/><use xlink:href="#8" y="13.026"/><use xlink:href="#3" y="15.197"/><use xlink:href="#9" y="19.539"/><use xlink:href="#11" y="21.71"/><use xlink:href="#12" y="23.881"/><use xlink:href="#3" y="26.052"/><use xlink:href="#9" y="30.394"/><use xlink:href="#11" y="32.565"/></svg><svg x="1247"><use xlink:href="#a"/><use xlink:href="#b" x="5.996" y="32.54"/><use xlink:href="#1"/><use xlink:href="#2" y="2.171"/><use xlink:href="#3" y="4.342"/><use xlink:href="#3" y="6.513"/><use xlink:href="#4" y="8.684"/><use xlink:href="#7" y="10.855"/><use xlink:href="#8" y="13.026"/><use xlink:href="#3" y="15.197"/><use xlink:href="#9" y="19.539"/><use xlink:href="#11" y="21.71"/><use xlink:href="#12" y="23.881"/><use xlink:href="#3" y="26.052"/><use xlink:href="#9" y="30.394"/><text y="34.235" class="f">╰─</text><text x="2.004" y="34.235" class="i">❯</text><text x="4.008" y="34.235" class="c">as</text><text x="41.082" y="34.235" class="f">─╯</text></svg><svg x="1290"><use xlink:href="#a"/><use xlink:href="#b" x="6.996" y="32.54"/><use xlink:href="#1"/><use xlink:href="#2" y="2.171"/><use xlink:href="#3" y="4.342"/><use xlink:href="#3" y="6.513"/><use xlink:href="#4" y="8.684"/><use xlink:href="#7" y="10.855"/><use xlink:href="#8" y="13.026"/><use xlink:href="#3" y="15.197"/><use xlink:href="#9" y="19.539"/><use xlink:href="#11" y="21.71"/><use xlink:href="#12" y="23.881"/><use xlink:href="#3" y="26.052"/><use xlink:href="#9" y="30.394"/><use xlink:href="#13" y="32.565"/></svg><svg x="1333"><use xlink:href="#a"/><use xlink:href="#b" x="-.004" y="34.711"/><use xlink:href="#1"/><use xlink:href="#2" y="2.171"/><use xlink:href="#3" y="4.342"/><use xlink:href="#3" y="6.513"/><use xlink:href="#4" y="8.684"/><use xlink:href="#7" y="10.855"/><use xlink:href="#8" y="13.026"/><use xlink:href="#3" y="15.197"/><use xlink:href="#9" y="19.539"/><use xlink:href="#11" y="21.71"/><use xlink:href="#12" y="23.881"/><use xlink:href="#3" y="26.052"/><use xlink:href="#9" y="30.394"/><use xlink:href="#13" y="32.565"/></svg><svg x="1376"><use xlink:href="#a"/><use xlink:href="#b" x="-.004" y="36.882"/><use xlink:href="#1"/><use xlink:href="#2" y="2.171"/><use xlink:href="#3" y="4.342"/><use xlink:href="#3" y="6.513"/><use xlink:href="#4" y="8.684"/><use xlink:href="#7" y="10.855"/><use xlink:href="#8" y="13.026"/><use xlink:href="#3" y="15.197"/><use xlink:href="#9" y="19.539"/><use xlink:href="#11" y="21.71"/><use xlink:href="#12" y="23.881"/><use xlink:href="#3" y="26.052"/><use xlink:href="#9" y="30.394"/><use xlink:href="#13" y="32.565"/><use xlink:href="#14" y="34.736"/></svg><svg x="1419"><use xlink:href="#a"/><use xlink:href="#b" x="-.004" y="39.053"/><use xlink:href="#1"/><use xlink:href="#2" y="2.171"/><use xlink:href="#3" y="4.342"/><use xlink:href="#3" y="6.513"/><use xlink:href="#4" y="8.684"/><use xlink:href="#7" y="10.855"/><use xlink:href="#8" y="13.026"/><use xlink:href="#3" y="15.197"/><use xlink:href="#9" y="19.539"/><use xlink:href="#11" y="21.71"/><use xlink:href="#12" y="23.881"/><use xlink:href="#3" y="26.052"/><use xlink:href="#9" y="30.394"/><use xlink:href="#13" y="32.565"/><use xlink:href="#14" y="34.736"/><use xlink:href="#3" y="36.907"/></svg><svg x="1462"><use xlink:href="#a"/><use xlink:href="#b" x="-.004" y="39.053"/><use xlink:href="#1"/><use xlink:href="#2" y="2.171"/><use xlink:href="#3" y="4.342"/><use xlink:href="#3" y="6.513"/><use xlink:href="#4" y="8.684"/><use xlink:href="#7" y="10.855"/><use xlink:href="#8" y="13.026"/><use xlink:href="#3" y="15.197"/><use xlink:href="#9" y="19.539"/><use xlink:href="#11" y="21.71"/><use xlink:href="#12" y="23.881"/><use xlink:href="#3" y="26.052"/><use xlink:href="#9" y="30.394"/><use xlink:href="#13" y="32.565"/><use xlink:href="#14" y="34.736"/><use xlink:href="#3" y="36.907"/></svg><svg x="1505"><use xlink:href="#a"/><use xlink:href="#b" x="-.004" y="41.224"/><use xlink:href="#1"/><use xlink:href="#2" y="2.171"/><use xlink:href="#3" y="4.342"/><use xlink:href="#3" y="6.513"/><use xlink:href="#4" y="8.684"/><use xlink:href="#7" y="10.855"/><use xlink:href="#8" y="13.026"/><use xlink:href="#3" y="15.197"/><use xlink:href="#9" y="19.539"/><use xlink:href="#11" y="21.71"/><use xlink:href="#12" y="23.881"/><use xlink:href="#3" y="26.052"/><use xlink:href="#9" y="30.394"/><use xlink:href="#13" y="32.565"/><use xlink:href="#14" y="34.736"/><use xlink:href="#3" y="36.907"/></svg><svg x="1548"><use xlink:href="#a"/><use xlink:href="#b" x="3.996" y="43.395"/><use xlink:href="#1"/><use xlink:href="#2" y="2.171"/><use xlink:href="#3" y="4.342"/><use xlink:href="#3" y="6.513"/><use xlink:href="#4" y="8.684"/><use xlink:href="#7" y="10.855"/><use xlink:href="#8" y="13.026"/><use xlink:href="#3" y="15.197"/><use xlink:href="#9" y="19.539"/><use xlink:href="#11" y="21.71"/><use xlink:href="#12" y="23.881"/><use xlink:href="#3" y="26.052"/><use xlink:href="#9" y="30.394"/><use xlink:href="#13" y="32.565"/><use xlink:href="#14" y="34.736"/><use xlink:href="#3" y="36.907"/><use xlink:href="#15" y="41.249"/><use xlink:href="#10" y="43.42"/></svg><svg x="1591"><use xlink:href="#a"/><use xlink:href="#b" x="3.996" y="43.395"/><use xlink:href="#1"/><use xlink:href="#2" y="2.171"/><use xlink:href="#3" y="4.342"/><use xlink:href="#3" y="6.513"/><use xlink:href="#4" y="8.684"/><use xlink:href="#7" y="10.855"/><use xlink:href="#8" y="13.026"/><use xlink:href="#3" y="15.197"/><use xlink:href="#9" y="19.539"/><use xlink:href="#11" y="21.71"/><use xlink:href="#12" y="23.881"/><use xlink:href="#3" y="26.052"/><use xlink:href="#9" y="30.394"/><use xlink:href="#13" y="32.565"/><use xlink:href="#14" y="34.736"/><use xlink:href="#3" y="36.907"/><use xlink:href="#15" y="41.249"/><use xlink:href="#10" y="43.42"/></svg><svg x="1634"><use xlink:href="#a"/><use xlink:href="#b" x="4.996" y="43.395"/><use xlink:href="#1"/><use xlink:href="#2" y="2.171"/><use xlink:href="#3" y="4.342"/><use xlink:href="#3" y="6.513"/><use xlink:href="#4" y="8.684"/><use xlink:href="#7" y="10.855"/><use xlink:href="#8" y="13.026"/><use xlink:href="#3" y="15.197"/><use xlink:href="#9" y="19.539"/><use xlink:href="#11" y="21.71"/><use xlink:href="#12" y="23.881"/><use xlink:href="#3" y="26.052"/><use xlink:href="#9" y="30.394"/><use xlink:href="#13" y="32.565"/><use xlink:href="#14" y="34.736"/><use xlink:href="#3" y="36.907"/><use xlink:href="#15" y="41.249"/><text y="45.09" class="f">╰─</text><text x="2.004" y="45.09" class="i">❯</text><text x="4.008" y="45.09" class="c">l</text><text x="41.082" y="45.09" class="f">─╯</text></svg><svg x="1677"><use xlink:href="#a"/><use xlink:href="#b" x="5.996" y="43.395"/><use xlink:href="#1"/><use xlink:href="#2" y="2.171"/><use xlink:href="#3" y="4.342"/><use xlink:href="#3" y="6.513"/><use xlink:href="#4" y="8.684"/><use xlink:href="#7" y="10.855"/><use xlink:href="#8" y="13.026"/><use xlink:href="#3" y="15.197"/><use xlink:href="#9" y="19.539"/><use xlink:href="#11" y="21.71"/><use xlink:href="#12" y="23.881"/><use xlink:href="#3" y="26.052"/><use xlink:href="#9" y="30.394"/><use xlink:href="#13" y="32.565"/><use xlink:href="#14" y="34.736"/><use xlink:href="#3" y="36.907"/><use xlink:href="#15" y="41.249"/><use xlink:href="#16" y="43.42"/></svg><svg x="1720"><use xlink:href="#a"/><use xlink:href="#b" x="-.004" y="45.566"/><use xlink:href="#1"/><use xlink:href="#2" y="2.171"/><use xlink:href="#3" y="4.342"/><use xlink:href="#3" y="6.513"/><use xlink:href="#4" y="8.684"/><use xlink:href="#7" y="10.855"/><use xlink:href="#8" y="13.026"/><use xlink:href="#3" y="15.197"/><use xlink:href="#9" y="19.539"/><use xlink:href="#11" y="21.71"/><use xlink:href="#12" y="23.881"/><use xlink:href="#3" y="26.052"/><use xlink:href="#9" y="30.394"/><use xlink:href="#13" y="32.565"/><use xlink:href="#14" y="34.736"/><use xlink:href="#3" y="36.907"/><use xlink:href="#15" y="41.249"/><use xlink:href="#16" y="43.42"/></svg><svg x="1763"><use xlink:href="#a"/><use xlink:href="#b" x="-.004" y="49.908"/><use xlink:href="#9" y="2.171"/><use xlink:href="#13" y="4.342"/><use xlink:href="#14" y="6.513"/><use xlink:href="#3" y="8.684"/><use xlink:href="#15" y="13.026"/><use xlink:href="#16" y="15.197"/><use xlink:href="#17" y="17.368"/><use xlink:href="#18" y="19.539"/><use xlink:href="#19" y="21.71"/><use xlink:href="#20" y="23.881"/><use xlink:href="#21" y="26.052"/><use xlink:href="#22" y="28.223"/><use xlink:href="#23" y="30.394"/><use xlink:href="#24" y="32.565"/><use xlink:href="#25" y="34.736"/><use xlink:href="#26" y="36.907"/><use xlink:href="#27" y="39.078"/><use xlink:href="#28" y="41.249"/><use xlink:href="#29" y="43.42"/><use xlink:href="#30" y="45.591"/><use xlink:href="#31" y="47.762"/></svg><svg x="1806"><use xlink:href="#a"/><use xlink:href="#b" x="-.004" y="49.908"/><use xlink:href="#14"/><use xlink:href="#3" y="2.171"/><use xlink:href="#15" y="6.513"/><use xlink:href="#16" y="8.684"/><use xlink:href="#17" y="10.855"/><use xlink:href="#18" y="13.026"/><use xlink:href="#19" y="15.197"/><use xlink:href="#20" y="17.368"/><use xlink:href="#21" y="19.539"/><use xlink:href="#22" y="21.71"/><use xlink:href="#23" y="23.881"/><use xlink:href="#24" y="26.052"/><use xlink:href="#25" y="28.223"/><use xlink:href="#26" y="30.394"/><use xlink:href="#27" y="32.565"/><use xlink:href="#28" y="34.736"/><use xlink:href="#29" y="36.907"/><use xlink:href="#30" y="39.078"/><use xlink:href="#31" y="41.249"/><use xlink:href="#32" y="43.42"/><use xlink:href="#33" y="45.591"/><use xlink:href="#34" y="47.762"/></svg><svg x="1849"><use xlink:href="#a"/><use xlink:href="#b" x="-.004" y="49.908"/><use xlink:href="#3"/><use xlink:href="#15" y="4.342"/><use xlink:href="#16" y="6.513"/><use xlink:href="#17" y="8.684"/><use xlink:href="#18" y="10.855"/><use xlink:href="#19" y="13.026"/><use xlink:href="#20" y="15.197"/><use xlink:href="#21" y="17.368"/><use xlink:href="#22" y="19.539"/><use xlink:href="#23" y="21.71"/><use xlink:href="#24" y="23.881"/><use xlink:href="#25" y="26.052"/><use xlink:href="#26" y="28.223"/><use xlink:href="#27" y="30.394"/><use xlink:href="#28" y="32.565"/><use xlink:href="#29" y="34.736"/><use xlink:href="#30" y="36.907"/><use xlink:href="#31" y="39.078"/><use xlink:href="#32" y="41.249"/><use xlink:href="#33" y="43.42"/><use xlink:href="#34" y="45.591"/><use xlink:href="#3" y="47.762"/></svg><svg x="1892"><use xlink:href="#a"/><use xlink:href="#b" x="-.004" y="49.908"/><use xlink:href="#3"/><use xlink:href="#15" y="4.342"/><use xlink:href="#16" y="6.513"/><use xlink:href="#17" y="8.684"/><use xlink:href="#18" y="10.855"/><use xlink:href="#19" y="13.026"/><use xlink:href="#20" y="15.197"/><use xlink:href="#21" y="17.368"/><use xlink:href="#22" y="19.539"/><use xlink:href="#23" y="21.71"/><use xlink:href="#24" y="23.881"/><use xlink:href="#25" y="26.052"/><use xlink:href="#26" y="28.223"/><use xlink:href="#27" y="30.394"/><use xlink:href="#28" y="32.565"/><use xlink:href="#29" y="34.736"/><use xlink:href="#30" y="36.907"/><use xlink:href="#31" y="39.078"/><use xlink:href="#32" y="41.249"/><use xlink:href="#33" y="43.42"/><use xlink:href="#34" y="45.591"/><use xlink:href="#3" y="47.762"/></svg><svg x="1935"><use xlink:href="#a"/><use xlink:href="#b" x="-.004" y="49.908"/><use xlink:href="#15" y="2.171"/><use xlink:href="#16" y="4.342"/><use xlink:href="#17" y="6.513"/><use xlink:href="#18" y="8.684"/><use xlink:href="#19" y="10.855"/><use xlink:href="#20" y="13.026"/><use xlink:href="#21" y="15.197"/><use xlink:href="#22" y="17.368"/><use xlink:href="#23" y="19.539"/><use xlink:href="#24" y="21.71"/><use xlink:href="#25" y="23.881"/><use xlink:href="#26" y="26.052"/><use xlink:href="#27" y="28.223"/><use xlink:href="#28" y="30.394"/><use xlink:href="#29" y="32.565"/><use xlink:href="#30" y="34.736"/><use xlink:href="#31" y="36.907"/><use xlink:href="#32" y="39.078"/><use xlink:href="#33" y="41.249"/><use xlink:href="#34" y="43.42"/><use xlink:href="#3" y="45.591"/></svg><svg x="1978"><use xlink:href="#a"/><use xlink:href="#b" x="3.996" y="49.908"/><use xlink:href="#15"/><use xlink:href="#16" y="2.171"/><use xlink:href="#17" y="4.342"/><use xlink:href="#18" y="6.513"/><use xlink:href="#19" y="8.684"/><use xlink:href="#20" y="10.855"/><use xlink:href="#21" y="13.026"/><use xlink:href="#22" y="15.197"/><use xlink:href="#23" y="17.368"/><use xlink:href="#24" y="19.539"/><use xlink:href="#25" y="21.71"/><use xlink:href="#26" y="23.881"/><use xlink:href="#27" y="26.052"/><use xlink:href="#28" y="28.223"/><use xlink:href="#29" y="30.394"/><use xlink:href="#30" y="32.565"/><use xlink:href="#31" y="34.736"/><use xlink:href="#32" y="36.907"/><use xlink:href="#33" y="39.078"/><use xlink:href="#34" y="41.249"/><use xlink:href="#3" y="43.42"/><use xlink:href="#15" y="47.762"/><use xlink:href="#6" y="49.933"/></svg><svg x="2021"><use xlink:href="#a"/><use xlink:href="#b" x="3.996" y="49.908"/><use xlink:href="#15"/><use xlink:href="#16" y="2.171"/><use xlink:href="#17" y="4.342"/><use xlink:href="#18" y="6.513"/><use xlink:href="#19" y="8.684"/><use xlink:href="#20" y="10.855"/><use xlink:href="#21" y="13.026"/><use xlink:href="#22" y="15.197"/><use xlink:href="#23" y="17.368"/><use xlink:href="#24" y="19.539"/><use xlink:href="#25" y="21.71"/><use xlink:href="#26" y="23.881"/><use xlink:href="#27" y="26.052"/><use xlink:href="#28" y="28.223"/><use xlink:href="#29" y="30.394"/><use xlink:href="#30" y="32.565"/><use xlink:href="#31" y="34.736"/><use xlink:href="#32" y="36.907"/><use xlink:href="#33" y="39.078"/><use xlink:href="#34" y="41.249"/><use xlink:href="#3" y="43.42"/><use xlink:href="#15" y="47.762"/><use xlink:href="#6" y="49.933"/></svg><svg x="2064"><use xlink:href="#a"/><use xlink:href="#b" x="-.004" y="49.908"/><use xlink:href="#16"/><use xlink:href="#17" y="2.171"/><use xlink:href="#18" y="4.342"/><use xlink:href="#19" y="6.513"/><use xlink:href="#20" y="8.684"/><use xlink:href="#21" y="10.855"/><use xlink:href="#22" y="13.026"/><use xlink:href="#23" y="15.197"/><use xlink:href="#24" y="17.368"/><use xlink:href="#25" y="19.539"/><use xlink:href="#26" y="21.71"/><use xlink:href="#27" y="23.881"/><use xlink:href="#28" y="26.052"/><use xlink:href="#29" y="28.223"/><use xlink:href="#30" y="30.394"/><use xlink:href="#31" y="32.565"/><use xlink:href="#32" y="34.736"/><use xlink:href="#33" y="36.907"/><use xlink:href="#34" y="39.078"/><use xlink:href="#3" y="41.249"/><use xlink:href="#15" y="45.591"/><use xlink:href="#6" y="47.762"/></svg><svg x="2107"><use xlink:href="#a"/><use xlink:href="#b" x="16.996" y="49.908"/><use xlink:href="#16"/><use xlink:href="#17" y="2.171"/><use xlink:href="#18" y="4.342"/><use xlink:href="#19" y="6.513"/><use xlink:href="#20" y="8.684"/><use xlink:href="#21" y="10.855"/><use xlink:href="#22" y="13.026"/><use xlink:href="#23" y="15.197"/><use xlink:href="#24" y="17.368"/><use xlink:href="#25" y="19.539"/><use xlink:href="#26" y="21.71"/><use xlink:href="#27" y="23.881"/><use xlink:href="#28" y="26.052"/><use xlink:href="#29" y="28.223"/><use xlink:href="#30" y="30.394"/><use xlink:href="#31" y="32.565"/><use xlink:href="#32" y="34.736"/><use xlink:href="#33" y="36.907"/><use xlink:href="#34" y="39.078"/><use xlink:href="#3" y="41.249"/><use xlink:href="#15" y="45.591"/><use xlink:href="#6" y="47.762"/><use xlink:href="#35" y="49.933"/></svg><svg x="2150"><use xlink:href="#a"/><use xlink:href="#b" x="19.996" y="49.908"/><use xlink:href="#17"/><use xlink:href="#18" y="2.171"/><use xlink:href="#19" y="4.342"/><use xlink:href="#20" y="6.513"/><use xlink:href="#21" y="8.684"/><use xlink:href="#22" y="10.855"/><use xlink:href="#23" y="13.026"/><use xlink:href="#24" y="15.197"/><use xlink:href="#25" y="17.368"/><use xlink:href="#26" y="19.539"/><use xlink:href="#27" y="21.71"/><use xlink:href="#28" y="23.881"/><use xlink:href="#29" y="26.052"/><use xlink:href="#30" y="28.223"/><use xlink:href="#31" y="30.394"/><use xlink:href="#32" y="32.565"/><use xlink:href="#33" y="34.736"/><use xlink:href="#34" y="36.907"/><use xlink:href="#3" y="39.078"/><use xlink:href="#15" y="43.42"/><use xlink:href="#6" y="45.591"/><use xlink:href="#35" y="47.762"/><text y="51.603" class="c">...saving</text><text x="10.02" y="51.603" class="c">history...</text></svg><svg x="2193"><use xlink:href="#a"/><use xlink:href="#b" x="3.996" y="49.908"/><use xlink:href="#18"/><use xlink:href="#19" y="2.171"/><use xlink:href="#20" y="4.342"/><use xlink:href="#21" y="6.513"/><use xlink:href="#22" y="8.684"/><use xlink:href="#23" y="10.855"/><use xlink:href="#24" y="13.026"/><use xlink:href="#25" y="15.197"/><use xlink:href="#26" y="17.368"/><use xlink:href="#27" y="19.539"/><use xlink:href="#28" y="21.71"/><use xlink:href="#29" y="23.881"/><use xlink:href="#30" y="26.052"/><use xlink:href="#31" y="28.223"/><use xlink:href="#32" y="30.394"/><use xlink:href="#33" y="32.565"/><use xlink:href="#34" y="34.736"/><use xlink:href="#3" y="36.907"/><use xlink:href="#15" y="41.249"/><use xlink:href="#6" y="43.42"/><use xlink:href="#35" y="45.591"/><use xlink:href="#36" y="47.762"/><use xlink:href="#37" y="49.933"/></svg><svg x="2236"><use xlink:href="#a"/><use xlink:href="#b" x="2.996" y="49.908"/><use xlink:href="#19"/><use xlink:href="#20" y="2.171"/><use xlink:href="#21" y="4.342"/><use xlink:href="#22" y="6.513"/><use xlink:href="#23" y="8.684"/><use xlink:href="#24" y="10.855"/><use xlink:href="#25" y="13.026"/><use xlink:href="#26" y="15.197"/><use xlink:href="#27" y="17.368"/><use xlink:href="#28" y="19.539"/><use xlink:href="#29" y="21.71"/><use xlink:href="#30" y="23.881"/><use xlink:href="#31" y="26.052"/><use xlink:href="#32" y="28.223"/><use xlink:href="#33" y="30.394"/><use xlink:href="#34" y="32.565"/><use xlink:href="#3" y="34.736"/><use xlink:href="#15" y="39.078"/><use xlink:href="#6" y="41.249"/><use xlink:href="#35" y="43.42"/><use xlink:href="#36" y="45.591"/><use xlink:href="#37" y="47.762"/><text y="51.603" class="c">...</text></svg><svg x="2279"><use xlink:href="#a"/><use xlink:href="#b" x="-.004" y="49.908"/><use xlink:href="#20"/><use xlink:href="#21" y="2.171"/><use xlink:href="#22" y="4.342"/><use xlink:href="#23" y="6.513"/><use xlink:href="#24" y="8.684"/><use xlink:href="#25" y="10.855"/><use xlink:href="#26" y="13.026"/><use xlink:href="#27" y="15.197"/><use xlink:href="#28" y="17.368"/><use xlink:href="#29" y="19.539"/><use xlink:href="#30" y="21.71"/><use xlink:href="#31" y="23.881"/><use xlink:href="#32" y="26.052"/><use xlink:href="#33" y="28.223"/><use xlink:href="#34" y="30.394"/><use xlink:href="#3" y="32.565"/><use xlink:href="#15" y="36.907"/><use xlink:href="#6" y="39.078"/><use xlink:href="#35" y="41.249"/><use xlink:href="#36" y="43.42"/><use xlink:href="#37" y="45.591"/><text y="49.432" class="c">...completed.</text></svg></svg></g></g></svg></svg>