<?xml version="1.0" encoding="UTF-8"?>
<svg width="2048px" height="200px" viewBox="0 0 2048 200" version="1.1" xmlns="http://www.w3.org/2000/svg" xmlns:xlink="http://www.w3.org/1999/xlink" preserveAspectRatio="xMidYMid meet" x="0" y="0" >
    <title>Artboard</title>
    <g id="Artboard" stroke="none" stroke-width="1" fill="none" fill-rule="evenodd">
        <g id="layered-waves-haikei" transform="translate(-1.000000, 0.000000)" fill-rule="nonzero">
            <rect id="Rectangle" fill="#000000" x="1" y="0" width="1024" height="199.180328"></rect>
            <path d="M1,57.2606612 L16.5875556,52.338615 C32.0613333,47.4165689 63.2364444,37.5724765 94.2977778,34.0450101 C125.359111,30.4355096 156.534222,33.2246691 187.368,35.7677263 C218.315556,38.3928176 249.035556,40.8538406 279.983111,37.3263742 C310.816889,33.7168737 341.992,24.2009178 373.053333,23.0524403 C404.114667,21.985997 435.289778,29.3690663 466.351111,27.1541455 C497.412444,25.0212588 528.587556,13.208348 559.648889,15.9975075 C590.710222,18.7046329 621.885333,35.9317945 652.946667,43.7250342 C684.008,51.518274 715.183111,49.8775919 746.016889,51.6823422 C776.964444,53.4050584 807.684444,58.6552409 838.632,57.6708317 C869.465778,56.6864225 900.640889,49.6314896 931.702222,47.4165689 C962.763556,45.2016481 982.744274,49.9587368 998.257813,54.0604419 C1008.60017,56.794912 1017.51424,58.536193 1025.00002,59.2842849 L1025.00002,200 L1009.41244,200 C993.938667,200 962.763556,200 931.702222,200 C900.640889,200 869.465778,200 838.632,200 C807.684444,200 776.964444,200 746.016889,200 C715.183111,200 684.008,200 652.946667,200 C621.885333,200 590.710222,200 559.648889,200 C528.587556,200 497.412444,200 466.351111,200 C435.289778,200 404.114667,200 373.053333,200 C341.992,200 310.816889,200 279.983111,200 C249.035556,200 218.315556,200 187.368,200 C156.534222,200 125.359111,200 94.2977778,200 C63.2364444,200 32.0613333,200 16.5875556,200 L1,200 L1,57.2606612 Z" id="Path" fill="#BC6FF1"></path>
            <path d="M1,66.057477 L16.5875556,68.6870235 C32.0613333,71.2343966 63.2364444,76.4934895 94.2977778,73.0422098 C125.359111,69.59093 156.534222,57.5936243 187.368,50.0336782 C218.315556,42.4737321 249.035556,39.5154924 279.983111,39.3511457 C310.816889,39.1867991 341.992,41.9806922 373.053333,46.0893585 C404.114667,50.1980249 435.289778,55.6214645 466.351111,61.784464 C497.412444,67.9474635 528.587556,74.850023 559.648889,74.110463 C590.710222,73.4530764 621.885333,65.2357437 652.946667,62.9348906 C684.008,60.5518641 715.183111,64.1674905 746.016889,62.7705439 C776.964444,61.3735973 807.684444,55.1284245 838.632,54.3066912 C869.465778,53.484958 900.640889,58.0866643 931.702222,64.4140104 C952.409778,68.6322412 983.509037,75.237108 1025,84.2286108 L1025,200 L1009.41244,200 C993.938667,200 962.763556,200 931.702222,200 C900.640889,200 869.465778,200 838.632,200 C807.684444,200 776.964444,200 746.016889,200 C715.183111,200 684.008,200 652.946667,200 C621.885333,200 590.710222,200 559.648889,200 C528.587556,200 497.412444,200 466.351111,200 C435.289778,200 404.114667,200 373.053333,200 C341.992,200 310.816889,200 279.983111,200 C249.035556,200 218.315556,200 187.368,200 C156.534222,200 125.359111,200 94.2977778,200 C63.2364444,200 32.0613333,200 16.5875556,200 L1,200 L1,66.057477 Z" id="Path" fill="#A156D2"></path>
            <path d="M1,88.9444175 L16.5875556,88.5331006 C32.0613333,88.1217836 63.2364444,87.2991496 94.2977778,92.2349533 C125.359111,97.170757 156.534222,107.864998 187.368,110.57969 C218.315556,113.376646 249.035556,108.111788 279.983111,101.530717 C310.816889,94.9496453 341.992,87.0523595 373.053333,86.8878327 C404.114667,86.7233059 435.289778,94.4560649 466.351111,96.1013328 C497.412444,97.7466007 528.587556,93.3043774 559.648889,92.6462703 C590.710222,91.9881631 621.885333,94.9496453 652.946667,99.474132 C684.008,103.998619 715.183111,110.08611 746.016889,112.142695 C776.964444,114.19928 807.684444,112.224958 838.632,106.877838 C869.465778,101.530717 900.640889,92.8107971 931.702222,92.6462703 C962.763556,92.4817435 966.577229,94.5700195 987.35032,99.474132 C1001.19905,102.74354 1013.74894,103.429069 1025,101.530717 L1025,200 L1009.41244,200 C993.938667,200 962.763556,200 931.702222,200 C900.640889,200 869.465778,200 838.632,200 C807.684444,200 776.964444,200 746.016889,200 C715.183111,200 684.008,200 652.946667,200 C621.885333,200 590.710222,200 559.648889,200 C528.587556,200 497.412444,200 466.351111,200 C435.289778,200 404.114667,200 373.053333,200 C341.992,200 310.816889,200 279.983111,200 C249.035556,200 218.315556,200 187.368,200 C156.534222,200 125.359111,200 94.2977778,200 C63.2364444,200 32.0613333,200 16.5875556,200 L1,200 L1,88.9444175 Z" id="Path" fill="#863DB4"></path>
            <path d="M1,145.081967 L16.5875556,141.229508 C32.0613333,137.459016 63.2364444,129.754098 94.2977778,125 C125.359111,120.245902 156.534222,118.278689 187.368,117.04918 C218.315556,115.819672 249.035556,115.327869 279.983111,119.836066 C310.816889,124.344262 341.992,133.852459 373.053333,138.278689 C404.114667,142.622951 435.289778,141.803279 466.351111,136.229508 C497.412444,130.57377 528.587556,120.245902 559.648889,119.672131 C590.710222,119.098361 621.885333,128.442623 652.946667,132.622951 C684.008,136.885246 715.183111,136.065574 746.016889,136.639344 C776.964444,137.131148 807.684444,139.098361 838.632,140.327869 C869.465778,141.557377 900.640889,142.04918 931.702222,137.540984 C946.589159,135.380315 962.216028,128.352389 987.844584,121.16457 C1004.93029,116.372691 1017.31543,113.962383 1025,113.933647 L1025,200 L1009.41244,200 C993.938667,200 962.763556,200 931.702222,200 C900.640889,200 869.465778,200 838.632,200 C807.684444,200 776.964444,200 746.016889,200 C715.183111,200 684.008,200 652.946667,200 C621.885333,200 590.710222,200 559.648889,200 C528.587556,200 497.412444,200 466.351111,200 C435.289778,200 404.114667,200 373.053333,200 C341.992,200 310.816889,200 279.983111,200 C249.035556,200 218.315556,200 187.368,200 C156.534222,200 125.359111,200 94.2977778,200 C63.2364444,200 32.0613333,200 16.5875556,200 L1,200 L1,145.081967 Z" id="Path" fill="#6C2497"></path>
            <path d="M1,148.331212 C1.08385182,148.054588 6.27970368,148.136602 16.5875556,148.577254 C32.0613333,148.90531 63.2364444,149.397393 94.2977778,148.49524 C125.359111,147.511073 156.534222,145.050654 187.368,148.49524 C218.315556,151.857812 249.035556,161.207402 279.983111,163.913862 C310.816889,166.620323 341.992,162.847681 373.053333,160.387263 C404.114667,157.926844 435.289778,156.778649 466.351111,154.31823 C497.412444,151.857812 528.587556,148.08517 559.648889,149.971491 C590.710222,151.857812 621.885333,159.567123 652.946667,162.273583 C684.008,164.980044 715.183111,162.847681 746.016889,161.617472 C776.964444,160.387263 807.684444,160.059207 838.632,157.926844 C869.465778,155.712468 900.640889,151.61177 931.702222,152.43191 C940.889133,152.67448 969.751066,156.348709 986.178753,162.273583 C997.130545,166.2235 1010.07096,167.04364 1025,164.734002 L1025,200 L1009.41244,200 C993.938667,200 962.763556,200 931.702222,200 C900.640889,200 869.465778,200 838.632,200 C807.684444,200 776.964444,200 746.016889,200 C715.183111,200 684.008,200 652.946667,200 C621.885333,200 590.710222,200 559.648889,200 C528.587556,200 497.412444,200 466.351111,200 C435.289778,200 404.114667,200 373.053333,200 C341.992,200 310.816889,200 279.983111,200 C249.035556,200 218.315556,200 187.368,200 C156.534222,200 125.359111,200 94.2977778,200 C63.2364444,200 32.0613333,200 16.5875556,200 L1,200 C0.916148176,165.830765 0.916148176,148.607836 1,148.331212 Z" id="Path" fill="#52057B"></path>
        </g>
        <g id="layered-waves-haikei" transform="translate(1544.500000, 100.000000) scale(-1, 1) translate(-1544.500000, -100.000000) translate(1024.000000, 0.000000)" fill-rule="nonzero">
            <rect id="Rectangle" fill="#000000" x="17" y="0" width="1024" height="199.180328"></rect>
            <path d="M17,59.2842849 C34.5665861,60.4580653 48.507805,59.4042735 58.8236569,56.1229094 C74.2974347,51.2008632 98.8067051,39.2951927 129.868038,35.7677263 C160.929372,32.1582258 172.534222,33.2246691 203.368,35.7677263 C234.315556,38.3928176 265.035556,40.8538406 295.983111,37.3263742 C326.816889,33.7168737 357.992,24.2009178 389.053333,23.0524403 C420.114667,21.985997 451.289778,29.3690663 482.351111,27.1541455 C513.412444,25.0212588 544.587556,13.208348 575.648889,15.9975075 C606.710222,18.7046329 637.885333,35.9317945 668.946667,43.7250342 C700.008,51.518274 731.183111,49.8775919 762.016889,51.6823422 C792.964444,53.4050584 823.684444,58.6552409 854.632,57.6708317 C885.465778,56.6864225 916.640889,49.6314896 947.702222,47.4165689 C978.763556,45.2016481 993.159304,57.9717392 1008.63308,59.2842849 C1018.94893,60.1593153 1029.73791,60.1593153 1041,59.2842849 L1041,200 L1025.41244,200 C1009.93867,200 978.763556,200 947.702222,200 C916.640889,200 885.465778,200 854.632,200 C823.684444,200 792.964444,200 762.016889,200 C731.183111,200 700.008,200 668.946667,200 C637.885333,200 606.710222,200 575.648889,200 C544.587556,200 513.412444,200 482.351111,200 C451.289778,200 420.114667,200 389.053333,200 C357.992,200 326.816889,200 295.983111,200 C265.035556,200 234.315556,200 203.368,200 C172.534222,200 141.359111,200 110.297778,200 C79.2364444,200 48.0613333,200 32.5875556,200 L17,200 L17,59.2842849 Z" id="Path" fill="#BC6FF1"></path>
            <path d="M17,84.2286108 C23.8506766,85.9724413 44.8005534,84.7220409 79.8496302,80.4774098 C132.423245,74.110463 172.534222,57.5936243 203.368,50.0336782 C234.315556,42.4737321 265.035556,39.5154924 295.983111,39.3511457 C326.816889,39.1867991 357.992,41.9806922 389.053333,46.0893585 C420.114667,50.1980249 451.289778,55.6214645 482.351111,61.784464 C513.412444,67.9474635 544.587556,74.850023 575.648889,74.110463 C606.710222,73.4530764 637.885333,65.2357437 668.946667,62.9348906 C700.008,60.5518641 731.183111,64.1674905 762.016889,62.7705439 C792.964444,61.3735973 823.684444,55.1284245 854.632,54.3066912 C885.465778,53.484958 916.640889,58.0866643 947.702222,64.4140104 C962.294088,67.3864452 974.465606,75.1348014 999.377496,80.4774098 C1015.98542,84.0391487 1029.85959,85.289549 1041,84.2286108 L1041,200 L1025.41244,200 C1009.93867,200 978.763556,200 947.702222,200 C916.640889,200 885.465778,200 854.632,200 C823.684444,200 792.964444,200 762.016889,200 C731.183111,200 700.008,200 668.946667,200 C637.885333,200 606.710222,200 575.648889,200 C544.587556,200 513.412444,200 482.351111,200 C451.289778,200 420.114667,200 389.053333,200 C357.992,200 326.816889,200 295.983111,200 C265.035556,200 234.315556,200 203.368,200 C172.534222,200 141.359111,200 110.297778,200 C79.2364444,200 48.0613333,200 32.5875556,200 L17,200 L17,84.2286108 Z" id="Path" fill="#A156D2"></path>
            <path d="M17,101.530717 C58.490963,92.0430054 89.5902222,88.9444175 110.297778,92.2349533 C141.359111,97.170757 172.534222,107.864998 203.368,110.57969 C234.315556,113.376646 265.035556,108.111788 295.983111,101.530717 C326.816889,94.9496453 357.992,87.0523595 389.053333,86.8878327 C420.114667,86.7233059 451.289778,94.4560649 482.351111,96.1013328 C513.412444,97.7466007 544.587556,93.3043774 575.648889,92.6462703 C606.710222,91.9881631 637.885333,94.9496453 668.946667,99.474132 C700.008,103.998619 731.183111,110.08611 762.016889,112.142695 C792.964444,114.19928 823.684444,112.224958 854.632,106.877838 C885.465778,101.530717 916.640889,92.8107971 947.702222,92.6462703 C968.409778,92.5365857 999.509037,95.4980679 1041,101.530717 L1041,200 L1025.41244,200 C1009.93867,200 978.763556,200 947.702222,200 C916.640889,200 885.465778,200 854.632,200 C823.684444,200 792.964444,200 762.016889,200 C731.183111,200 700.008,200 668.946667,200 C637.885333,200 606.710222,200 575.648889,200 C544.587556,200 513.412444,200 482.351111,200 C451.289778,200 420.114667,200 389.053333,200 C357.992,200 326.816889,200 295.983111,200 C265.035556,200 234.315556,200 203.368,200 C172.534222,200 141.359111,200 110.297778,200 C79.2364444,200 48.0613333,200 32.5875556,200 L17,200 L17,101.530717 Z" id="Path" fill="#863DB4"></path>
            <path d="M17,113.934426 C50.044196,107.786885 79.2364444,129.754098 110.297778,125 C141.359111,120.245902 172.534222,118.278689 203.368,117.04918 C234.315556,115.819672 265.035556,115.327869 295.983111,119.836066 C326.816889,124.344262 357.992,133.852459 389.053333,138.278689 C420.114667,142.622951 451.289778,141.803279 482.351111,136.229508 C513.412444,130.57377 544.587556,120.245902 575.648889,119.672131 C606.710222,119.098361 637.885333,128.442623 668.946667,132.622951 C700.008,136.885246 731.183111,136.065574 762.016889,136.639344 C792.964444,137.131148 823.684444,139.098361 854.632,140.327869 C885.465778,141.557377 919.721337,145.21096 941.347548,140.327869 C956.214683,136.970943 975.842624,126.665802 1000.40126,119.836066 C1016.77369,115.282908 1030.3066,113.315695 1041,113.934426 L1041,200 L1025.41244,200 C1009.93867,200 978.763556,200 947.702222,200 C916.640889,200 885.465778,200 854.632,200 C823.684444,200 792.964444,200 762.016889,200 C731.183111,200 700.008,200 668.946667,200 C637.885333,200 606.710222,200 575.648889,200 C544.587556,200 513.412444,200 482.351111,200 C451.289778,200 420.114667,200 389.053333,200 C357.992,200 326.816889,200 295.983111,200 C265.035556,200 234.315556,200 203.368,200 C172.534222,200 141.359111,200 110.297778,200 C79.2364444,200 48.0613333,200 32.5875556,200 L17,200 C-5.02946397,146.721311 -5.02946397,118.032787 17,113.934426 Z" id="Path" fill="#6C2497"></path>
            <path d="M16.9944666,164.734002 C20.7963567,164.187242 31.9883448,161.598183 50.570431,156.966823 C78.4435604,150.019784 79.2364444,149.397393 110.297778,148.49524 C141.359111,147.511073 172.534222,145.050654 203.368,148.49524 C234.315556,151.857812 265.035556,161.207402 295.983111,163.913862 C326.816889,166.620323 357.992,162.847681 389.053333,160.387263 C420.114667,157.926844 451.289778,156.778649 482.351111,154.31823 C513.412444,151.857812 544.587556,148.08517 575.648889,149.971491 C606.710222,151.857812 637.885333,159.567123 668.946667,162.273583 C700.008,164.980044 731.183111,162.847681 762.016889,161.617472 C792.964444,160.387263 823.684444,160.059207 854.632,157.926844 C885.465778,155.712468 916.640889,151.61177 947.702222,152.43191 C978.763556,153.252049 1009.93867,158.993026 1025.41244,161.863514 L1041,164.734002 L1041,200 L1025.41244,200 C1009.93867,200 978.763556,200 947.702222,200 C916.640889,200 885.465778,200 854.632,200 C823.684444,200 792.964444,200 762.016889,200 C731.183111,200 700.008,200 668.946667,200 C637.885333,200 606.710222,200 575.648889,200 C544.587556,200 513.412444,200 482.351111,200 C451.289778,200 420.114667,200 389.053333,200 C357.992,200 326.816889,200 295.983111,200 C265.035556,200 234.315556,200 203.368,200 C172.534222,200 141.359111,200 110.297778,200 C79.2364444,200 48.0613333,200 32.5875556,200 L16.9944666,200 L16.9944666,164.734002 Z" id="Path" fill="#52057B"></path>
        </g>
    </g>
</svg>
