<svg id="visual" viewBox="0 0 1600 300" width="1600" height="300" xmlns="http://www.w3.org/2000/svg" xmlns:xlink="http://www.w3.org/1999/xlink" version="1.1">
  <rect x="0" y="0" width="1600" height="300" fill="#000000">
  </rect>
  <path d="M0 133L17.8 124.3C35.7 115.7 71.3 98.3 106.8 90.2C142.3 82 177.7 83 213.2 92C248.7 101 284.3 118 320 119.2C355.7 120.3 391.3 105.7 426.8 92.7C462.3 79.7 497.7 68.3 533.2 71.3C568.7 74.3 604.3 91.7 640 102.5C675.7 113.3 711.3 117.7 746.8 107.3C782.3 97 817.7 72 853.2 61.7C888.7 51.3 924.3 55.7 960 65C995.7 74.3 1031.3 88.7 1066.8 93.7C1102.3 98.7 1137.7 94.3 1173.2 95.2C1208.7 96 1244.3 102 1280 101.2C1315.7 100.3 1351.3 92.7 1386.8 94.3C1422.3 96 1457.7 107 1493.2 110.2C1528.7 113.3 1564.3 108.7 1582.2 106.3L1600 104L1600 301L1582.2 301C1564.3 301 1528.7 301 1493.2 301C1457.7 301 1422.3 301 1386.8 301C1351.3 301 1315.7 301 1280 301C1244.3 301 1208.7 301 1173.2 301C1137.7 301 1102.3 301 1066.8 301C1031.3 301 995.7 301 960 301C924.3 301 888.7 301 853.2 301C817.7 301 782.3 301 746.8 301C711.3 301 675.7 301 640 301C604.3 301 568.7 301 533.2 301C497.7 301 462.3 301 426.8 301C391.3 301 355.7 301 320 301C284.3 301 248.7 301 213.2 301C177.7 301 142.3 301 106.8 301C71.3 301 35.7 301 17.8 301L0 301Z" fill="#bc6ff1">
  </path>
  <path d="M0 135L17.8 134.8C35.7 134.7 71.3 134.3 106.8 135.5C142.3 136.7 177.7 139.3 213.2 130C248.7 120.7 284.3 99.3 320 94C355.7 88.7 391.3 99.3 426.8 99.2C462.3 99 497.7 88 533.2 95.2C568.7 102.3 604.3 127.7 640 136.7C675.7 145.7 711.3 138.3 746.8 138.3C782.3 138.3 817.7 145.7 853.2 144.3C888.7 143 924.3 133 960 132.2C995.7 131.3 1031.3 139.7 1066.8 142.5C1102.3 145.3 1137.7 142.7 1173.2 138.3C1208.7 134 1244.3 128 1280 120.8C1315.7 113.7 1351.3 105.3 1386.8 104C1422.3 102.7 1457.7 108.3 1493.2 110.3C1528.7 112.3 1564.3 110.7 1582.2 109.8L1600 109L1600 301L1582.2 301C1564.3 301 1528.7 301 1493.2 301C1457.7 301 1422.3 301 1386.8 301C1351.3 301 1315.7 301 1280 301C1244.3 301 1208.7 301 1173.2 301C1137.7 301 1102.3 301 1066.8 301C1031.3 301 995.7 301 960 301C924.3 301 888.7 301 853.2 301C817.7 301 782.3 301 746.8 301C711.3 301 675.7 301 640 301C604.3 301 568.7 301 533.2 301C497.7 301 462.3 301 426.8 301C391.3 301 355.7 301 320 301C284.3 301 248.7 301 213.2 301C177.7 301 142.3 301 106.8 301C71.3 301 35.7 301 17.8 301L0 301Z" fill="#ac61df">
  </path>
  <path d="M0 123L17.8 130.8C35.7 138.7 71.3 154.3 106.8 162.7C142.3 171 177.7 172 213.2 161.5C248.7 151 284.3 129 320 126.5C355.7 124 391.3 141 426.8 150.8C462.3 160.7 497.7 163.3 533.2 156.7C568.7 150 604.3 134 640 127.7C675.7 121.3 711.3 124.7 746.8 125.2C782.3 125.7 817.7 123.3 853.2 125.3C888.7 127.3 924.3 133.7 960 133.5C995.7 133.3 1031.3 126.7 1066.8 126.5C1102.3 126.3 1137.7 132.7 1173.2 133.3C1208.7 134 1244.3 129 1280 127.7C1315.7 126.3 1351.3 128.7 1386.8 134.2C1422.3 139.7 1457.7 148.3 1493.2 151.5C1528.7 154.7 1564.3 152.3 1582.2 151.2L1600 150L1600 301L1582.2 301C1564.3 301 1528.7 301 1493.2 301C1457.7 301 1422.3 301 1386.8 301C1351.3 301 1315.7 301 1280 301C1244.3 301 1208.7 301 1173.2 301C1137.7 301 1102.3 301 1066.8 301C1031.3 301 995.7 301 960 301C924.3 301 888.7 301 853.2 301C817.7 301 782.3 301 746.8 301C711.3 301 675.7 301 640 301C604.3 301 568.7 301 533.2 301C497.7 301 462.3 301 426.8 301C391.3 301 355.7 301 320 301C284.3 301 248.7 301 213.2 301C177.7 301 142.3 301 106.8 301C71.3 301 35.7 301 17.8 301L0 301Z" fill="#9d52ce">
  </path>
  <path d="M0 158L17.8 161C35.7 164 71.3 170 106.8 170.8C142.3 171.7 177.7 167.3 213.2 164.7C248.7 162 284.3 161 320 166.5C355.7 172 391.3 184 426.8 186.5C462.3 189 497.7 182 533.2 178C568.7 174 604.3 173 640 176.7C675.7 180.3 711.3 188.7 746.8 182.2C782.3 175.7 817.7 154.3 853.2 153.8C888.7 153.3 924.3 173.7 960 176.5C995.7 179.3 1031.3 164.7 1066.8 158.7C1102.3 152.7 1137.7 155.3 1173.2 162.8C1208.7 170.3 1244.3 182.7 1280 187.7C1315.7 192.7 1351.3 190.3 1386.8 189C1422.3 187.7 1457.7 187.3 1493.2 180.3C1528.7 173.3 1564.3 159.7 1582.2 152.8L1600 146L1600 301L1582.2 301C1564.3 301 1528.7 301 1493.2 301C1457.7 301 1422.3 301 1386.8 301C1351.3 301 1315.7 301 1280 301C1244.3 301 1208.7 301 1173.2 301C1137.7 301 1102.3 301 1066.8 301C1031.3 301 995.7 301 960 301C924.3 301 888.7 301 853.2 301C817.7 301 782.3 301 746.8 301C711.3 301 675.7 301 640 301C604.3 301 568.7 301 533.2 301C497.7 301 462.3 301 426.8 301C391.3 301 355.7 301 320 301C284.3 301 248.7 301 213.2 301C177.7 301 142.3 301 106.8 301C71.3 301 35.7 301 17.8 301L0 301Z" fill="#8e44bd">
  </path>
  <path d="M0 170L17.8 174.8C35.7 179.7 71.3 189.3 106.8 191.3C142.3 193.3 177.7 187.7 213.2 182.7C248.7 177.7 284.3 173.3 320 178C355.7 182.7 391.3 196.3 426.8 195.5C462.3 194.7 497.7 179.3 533.2 171.8C568.7 164.3 604.3 164.7 640 167C675.7 169.3 711.3 173.7 746.8 174.2C782.3 174.7 817.7 171.3 853.2 177.8C888.7 184.3 924.3 200.7 960 205.2C995.7 209.7 1031.3 202.3 1066.8 200.2C1102.3 198 1137.7 201 1173.2 199.7C1208.7 198.3 1244.3 192.7 1280 191.7C1315.7 190.7 1351.3 194.3 1386.8 197.3C1422.3 200.3 1457.7 202.7 1493.2 200C1528.7 197.3 1564.3 189.7 1582.2 185.8L1600 182L1600 301L1582.2 301C1564.3 301 1528.7 301 1493.2 301C1457.7 301 1422.3 301 1386.8 301C1351.3 301 1315.7 301 1280 301C1244.3 301 1208.7 301 1173.2 301C1137.7 301 1102.3 301 1066.8 301C1031.3 301 995.7 301 960 301C924.3 301 888.7 301 853.2 301C817.7 301 782.3 301 746.8 301C711.3 301 675.7 301 640 301C604.3 301 568.7 301 533.2 301C497.7 301 462.3 301 426.8 301C391.3 301 355.7 301 320 301C284.3 301 248.7 301 213.2 301C177.7 301 142.3 301 106.8 301C71.3 301 35.7 301 17.8 301L0 301Z" fill="#7e36ac">
  </path>
  <path d="M0 209L17.8 210C35.7 211 71.3 213 106.8 211.7C142.3 210.3 177.7 205.7 213.2 209.3C248.7 213 284.3 225 320 227.3C355.7 229.7 391.3 222.3 426.8 217C462.3 211.7 497.7 208.3 533.2 205.2C568.7 202 604.3 199 640 202.3C675.7 205.7 711.3 215.3 746.8 215.3C782.3 215.3 817.7 205.7 853.2 207.5C888.7 209.3 924.3 222.7 960 228.3C995.7 234 1031.3 232 1066.8 229C1102.3 226 1137.7 222 1173.2 220.5C1208.7 219 1244.3 220 1280 221.2C1315.7 222.3 1351.3 223.7 1386.8 220C1422.3 216.3 1457.7 207.7 1493.2 205.7C1528.7 203.7 1564.3 208.3 1582.2 210.7L1600 213L1600 301L1582.2 301C1564.3 301 1528.7 301 1493.2 301C1457.7 301 1422.3 301 1386.8 301C1351.3 301 1315.7 301 1280 301C1244.3 301 1208.7 301 1173.2 301C1137.7 301 1102.3 301 1066.8 301C1031.3 301 995.7 301 960 301C924.3 301 888.7 301 853.2 301C817.7 301 782.3 301 746.8 301C711.3 301 675.7 301 640 301C604.3 301 568.7 301 533.2 301C497.7 301 462.3 301 426.8 301C391.3 301 355.7 301 320 301C284.3 301 248.7 301 213.2 301C177.7 301 142.3 301 106.8 301C71.3 301 35.7 301 17.8 301L0 301Z" fill="#6f289b">
  </path>
  <path d="M0 229L17.8 231.8C35.7 234.7 71.3 240.3 106.8 240.7C142.3 241 177.7 236 213.2 235C248.7 234 284.3 237 320 241.3C355.7 245.7 391.3 251.3 426.8 249.7C462.3 248 497.7 239 533.2 236.3C568.7 233.7 604.3 237.3 640 240C675.7 242.7 711.3 244.3 746.8 246.3C782.3 248.3 817.7 250.7 853.2 248.2C888.7 245.7 924.3 238.3 960 238.7C995.7 239 1031.3 247 1066.8 246.8C1102.3 246.7 1137.7 238.3 1173.2 236.5C1208.7 234.7 1244.3 239.3 1280 238.3C1315.7 237.3 1351.3 230.7 1386.8 231.5C1422.3 232.3 1457.7 240.7 1493.2 245.8C1528.7 251 1564.3 253 1582.2 254L1600 255L1600 301L1582.2 301C1564.3 301 1528.7 301 1493.2 301C1457.7 301 1422.3 301 1386.8 301C1351.3 301 1315.7 301 1280 301C1244.3 301 1208.7 301 1173.2 301C1137.7 301 1102.3 301 1066.8 301C1031.3 301 995.7 301 960 301C924.3 301 888.7 301 853.2 301C817.7 301 782.3 301 746.8 301C711.3 301 675.7 301 640 301C604.3 301 568.7 301 533.2 301C497.7 301 462.3 301 426.8 301C391.3 301 355.7 301 320 301C284.3 301 248.7 301 213.2 301C177.7 301 142.3 301 106.8 301C71.3 301 35.7 301 17.8 301L0 301Z" fill="#61188b">
  </path>
  <path d="M0 259L17.8 257.8C35.7 256.7 71.3 254.3 106.8 257.3C142.3 260.3 177.7 268.7 213.2 273C248.7 277.3 284.3 277.7 320 275.8C355.7 274 391.3 270 426.8 270.5C462.3 271 497.7 276 533.2 276.5C568.7 277 604.3 273 640 273C675.7 273 711.3 277 746.8 278.3C782.3 279.7 817.7 278.3 853.2 273.7C888.7 269 924.3 261 960 256.5C995.7 252 1031.3 251 1066.8 252.2C1102.3 253.3 1137.7 256.7 1173.2 258.5C1208.7 260.3 1244.3 260.7 1280 260.2C1315.7 259.7 1351.3 258.3 1386.8 260.7C1422.3 263 1457.7 269 1493.2 269.5C1528.7 270 1564.3 265 1582.2 262.5L1600 260L1600 301L1582.2 301C1564.3 301 1528.7 301 1493.2 301C1457.7 301 1422.3 301 1386.8 301C1351.3 301 1315.7 301 1280 301C1244.3 301 1208.7 301 1173.2 301C1137.7 301 1102.3 301 1066.8 301C1031.3 301 995.7 301 960 301C924.3 301 888.7 301 853.2 301C817.7 301 782.3 301 746.8 301C711.3 301 675.7 301 640 301C604.3 301 568.7 301 533.2 301C497.7 301 462.3 301 426.8 301C391.3 301 355.7 301 320 301C284.3 301 248.7 301 213.2 301C177.7 301 142.3 301 106.8 301C71.3 301 35.7 301 17.8 301L0 301Z" fill="#52057b">
  </path>
</svg>
