<svg id="visual" viewBox="0 0 375 400" width="375" height="400" xmlns="http://www.w3.org/2000/svg" xmlns:xlink="http://www.w3.org/1999/xlink" version="1.1"><rect x="0" y="0" width="375" height="400" fill="#000"></rect><path d="M0 158L7 156.2C14 154.3 28 150.7 41.8 147.2C55.7 143.7 69.3 140.3 83.2 141.7C97 143 111 149 125 149.5C139 150 153 145 166.8 144.5C180.7 144 194.3 148 208.2 145C222 142 236 132 250 129.3C264 126.7 278 131.3 291.8 134.5C305.7 137.7 319.3 139.3 333.2 141.5C347 143.7 361 146.3 368 147.7L375 149L375 401L368 401C361 401 347 401 333.2 401C319.3 401 305.7 401 291.8 401C278 401 264 401 250 401C236 401 222 401 208.2 401C194.3 401 180.7 401 166.8 401C153 401 139 401 125 401C111 401 97 401 83.2 401C69.3 401 55.7 401 41.8 401C28 401 14 401 7 401L0 401Z" fill="#bc6ff1"></path><path d="M0 188L7 189.8C14 191.7 28 195.3 41.8 197.5C55.7 199.7 69.3 200.3 83.2 200.3C97 200.3 111 199.7 125 196.2C139 192.7 153 186.3 166.8 186.7C180.7 187 194.3 194 208.2 190.7C222 187.3 236 173.7 250 169C264 164.3 278 168.7 291.8 171.8C305.7 175 319.3 177 333.2 175C347 173 361 167 368 164L375 161L375 401L368 401C361 401 347 401 333.2 401C319.3 401 305.7 401 291.8 401C278 401 264 401 250 401C236 401 222 401 208.2 401C194.3 401 180.7 401 166.8 401C153 401 139 401 125 401C111 401 97 401 83.2 401C69.3 401 55.7 401 41.8 401C28 401 14 401 7 401L0 401Z" fill="#a156d2"></path><path d="M0 234L7 236.5C14 239 28 244 41.8 242.3C55.7 240.7 69.3 232.3 83.2 227.5C97 222.7 111 221.3 125 222.5C139 223.7 153 227.3 166.8 226.5C180.7 225.7 194.3 220.3 208.2 218.8C222 217.3 236 219.7 250 224.8C264 230 278 238 291.8 238.3C305.7 238.7 319.3 231.3 333.2 228.8C347 226.3 361 228.7 368 229.8L375 231L375 401L368 401C361 401 347 401 333.2 401C319.3 401 305.7 401 291.8 401C278 401 264 401 250 401C236 401 222 401 208.2 401C194.3 401 180.7 401 166.8 401C153 401 139 401 125 401C111 401 97 401 83.2 401C69.3 401 55.7 401 41.8 401C28 401 14 401 7 401L0 401Z" fill="#863db4"></path><path d="M0 279L7 277C14 275 28 271 41.8 273C55.7 275 69.3 283 83.2 284.8C97 286.7 111 282.3 125 278.2C139 274 153 270 166.8 271.2C180.7 272.3 194.3 278.7 208.2 283.5C222 288.3 236 291.7 250 288.7C264 285.7 278 276.3 291.8 275.3C305.7 274.3 319.3 281.7 333.2 284.3C347 287 361 285 368 284L375 283L375 401L368 401C361 401 347 401 333.2 401C319.3 401 305.7 401 291.8 401C278 401 264 401 250 401C236 401 222 401 208.2 401C194.3 401 180.7 401 166.8 401C153 401 139 401 125 401C111 401 97 401 83.2 401C69.3 401 55.7 401 41.8 401C28 401 14 401 7 401L0 401Z" fill="#6c2497"></path><path d="M0 329L7 330.2C14 331.3 28 333.7 41.8 333.3C55.7 333 69.3 330 83.2 329.3C97 328.7 111 330.3 125 331.8C139 333.3 153 334.7 166.8 334.2C180.7 333.7 194.3 331.3 208.2 332.5C222 333.7 236 338.3 250 339.5C264 340.7 278 338.3 291.8 337.2C305.7 336 319.3 336 333.2 334.2C347 332.3 361 328.7 368 326.8L375 325L375 401L368 401C361 401 347 401 333.2 401C319.3 401 305.7 401 291.8 401C278 401 264 401 250 401C236 401 222 401 208.2 401C194.3 401 180.7 401 166.8 401C153 401 139 401 125 401C111 401 97 401 83.2 401C69.3 401 55.7 401 41.8 401C28 401 14 401 7 401L0 401Z" fill="#52057b"></path></svg>
